<?xml version="1.0" standalone="no"?>
<!DOCTYPE svg PUBLIC "-//W3C//DTD SVG 20010904//EN"
 "http://www.w3.org/TR/2001/REC-SVG-20010904/DTD/svg10.dtd">
<svg version="1.0" xmlns="http://www.w3.org/2000/svg"
 width="200.000000pt" height="200.000000pt" viewBox="0 0 200.000000 200.000000"
 preserveAspectRatio="xMidYMid meet">
<metadata>
Created by potrace 1.11, written by Peter Selinger 2001-2013
</metadata>
<g transform="translate(0.000000,200.000000) scale(0.100000,-0.100000)"
fill="#000000" stroke="none">
<path d="M235 1564 c-67 -21 -85 -39 -83 -81 1 -39 -4 -38 98 -9 146 42 220 1
220 -120 l0 -43 -31 9 c-17 5 -70 8 -118 7 -74 -3 -92 -7 -126 -30 -51 -33
-71 -68 -79 -132 -5 -41 -2 -58 16 -94 13 -25 34 -53 48 -63 64 -46 189 -36
260 21 l39 31 21 -35 c26 -42 42 -43 86 -10 l33 26 -18 30 c-16 27 -19 54 -20
188 -1 86 -6 172 -11 192 -13 46 -43 85 -83 106 -45 23 -188 27 -252 7z m205
-320 c32 -7 32 -7 28 -56 -9 -85 -72 -128 -179 -119 -32 2 -59 40 -59 82 0 31
7 47 29 70 26 26 37 29 89 29 33 0 74 -3 92 -6z"/>
<path d="M1585 1565 c-22 -8 -57 -32 -77 -56 -34 -37 -38 -48 -38 -93 0 -94
43 -136 185 -182 114 -37 142 -69 110 -126 -26 -44 -135 -55 -228 -23 -66 23
-77 20 -77 -20 0 -25 6 -38 23 -49 88 -55 258 -53 336 5 43 32 70 90 66 145
-5 78 -45 116 -165 155 -95 31 -126 47 -137 72 -14 32 3 73 37 87 35 14 122
11 175 -7 53 -18 67 -12 60 29 -7 41 -24 54 -87 67 -66 15 -135 13 -183 -4z"/>
<path d="M643 1553 c-5 -12 87 -331 144 -503 l18 -55 51 -3 c33 -2 54 2 61 10
9 11 23 60 38 133 10 49 67 280 70 283 2 2 24 -82 49 -186 61 -254 54 -239
114 -240 29 -1 54 4 60 11 15 19 174 538 168 552 -4 12 -90 15 -102 3 -6 -6
-85 -300 -106 -393 -9 -44 -12 -47 -19 -27 -10 25 -75 299 -84 353 -11 61 -28
77 -80 74 -26 -1 -50 -7 -54 -14 -4 -6 -30 -106 -57 -221 -27 -120 -51 -202
-55 -192 -3 9 -28 103 -54 209 -26 105 -51 197 -56 204 -11 18 -99 20 -106 2z"/>
<path d="M1732 845 c-69 -15 -130 -46 -122 -61 3 -5 58 -9 123 -9 102 0 120
-3 131 -18 16 -21 8 -73 -28 -173 -30 -83 -30 -84 -13 -84 42 0 119 130 138
235 13 72 6 101 -26 109 -56 14 -144 15 -203 1z"/>
<path d="M34 809 c-8 -14 2 -25 74 -82 169 -135 405 -244 607 -282 91 -16 145
-20 295 -20 240 1 418 42 625 145 118 59 171 100 162 124 -9 23 -23 21 -170
-29 -118 -39 -244 -70 -377 -90 -133 -21 -407 -12 -590 20 -163 28 -382 105
-550 195 -52 28 -68 32 -76 19z"/>
</g>
</svg>
